<?xml version="1.0" encoding="UTF-8" standalone="no"?>
<svg
   version="1.1"
   id="svg2"
   xml:space="preserve"
   width="2533.3333"
   height="960"
   viewBox="0 0 2533.3333 960"
   sodipodi:docname="visiba_logotype_2_CMYK_White.eps"
   xmlns:inkscape="http://www.inkscape.org/namespaces/inkscape"
   xmlns:sodipodi="http://sodipodi.sourceforge.net/DTD/sodipodi-0.dtd"
   xmlns="http://www.w3.org/2000/svg"
   xmlns:svg="http://www.w3.org/2000/svg"><defs
     id="defs6" /><sodipodi:namedview
     id="namedview4"
     pagecolor="#ffffff"
     bordercolor="#666666"
     borderopacity="1.0"
     inkscape:pageshadow="2"
     inkscape:pageopacity="0.0"
     inkscape:pagecheckerboard="0" /><g
     id="g8"
     inkscape:groupmode="layer"
     inkscape:label="ink_ext_XXXXXX"
     transform="matrix(1.3333333,0,0,-1.3333333,0,960)"><g
       id="g10"
       transform="scale(0.1)"><path
         d="M 4927.12,170.891 3940.91,2472.05 5893.92,7029.07 c 50.13,116.96 205.56,140.75 288.37,44.14 L 7230.28,5850.55 c 510.76,-595.88 638.91,-1430.06 330.57,-2151.77 L 6365.67,901.262 C 6149.56,395.422 5652.68,67.1289 5102.6,66.7695 l -17.44,-0.0078 C 5016.39,66.7109 4954.21,107.68 4927.12,170.891"
         style="fill:#ffffff;fill-opacity:1;fill-rule:nonzero;stroke:none"
         id="path12" /><path
         d="M 2954.7,170.891 3940.91,2472.05 1987.9,7029.07 c -50.12,116.96 -205.56,140.75 -288.37,44.14 L 651.547,5850.55 C 140.793,5254.67 12.6406,4420.49 320.977,3698.78 L 1516.16,901.262 C 1732.27,395.422 2229.15,67.1289 2779.23,66.7695 l 17.44,-0.0078 c 68.77,-0.0508 130.94,40.9183 158.03,104.1293"
         style="fill:#ffffff;fill-opacity:1;fill-rule:nonzero;stroke:none"
         id="path14" /><path
         d="m 8725.43,1943.36 c 0,888.63 585.85,1407.74 1372.37,1407.74 668.4,0 1140.3,-416.86 1191.4,-994.9 h -534.8 c -47.1,318.48 -306.7,538.74 -656.6,538.74 -483.73,0 -837.64,-350.03 -837.64,-951.58 0,-601.71 357.85,-951.598 837.64,-951.598 346,0 617.3,235.888 668.4,554.378 h 534.8 c -62.9,-570.148 -523,-1010.531 -1203.2,-1010.531 -774.69,0 -1372.37,515.091 -1372.37,1407.751"
         style="fill:#ffffff;fill-opacity:1;fill-rule:nonzero;stroke:none"
         id="path16" /><path
         d="m 12237.9,917.059 c 287.1,0 468,228.001 468,511.061 v 31.55 l -365.7,-47.18 c -275.3,-31.55 -397.2,-110.13 -397.2,-275.32 0,-137.67 114,-220.111 294.9,-220.111 z m -786.4,200.461 c 0,389.33 267.4,597.69 869,660.64 l 385.4,39.29 v 43.31 c 0,208.35 -149.4,334.26 -373.5,334.26 -208.5,0 -350.1,-114.15 -377.5,-318.64 h -491.6 c 55.1,393.35 385.4,703.95 869.1,703.95 511.1,0 872.9,-279.2 872.9,-786.4 V 567.02 h -499.4 v 251.66 c -86.5,-157.309 -314.6,-283.071 -566.3,-283.071 -416.8,0 -688.1,239.762 -688.1,581.911"
         style="fill:#ffffff;fill-opacity:1;fill-rule:nonzero;stroke:none"
         id="path18" /><path
         d="m 13459.8,2548.93 h 499.4 v -267.44 c 110.1,180.82 342.1,298.84 581.9,298.84 82.6,0 157.4,-11.76 220.3,-39.29 v -471.93 c -90.5,35.42 -180.9,47.18 -267.4,47.18 -287,0 -534.8,-243.78 -534.8,-798.15 V 567.02 h -499.4 v 1981.91"
         style="fill:#ffffff;fill-opacity:1;fill-rule:nonzero;stroke:none"
         id="path20" /><path
         d="m 16238,1817.45 c -7.8,228.15 -184.8,377.57 -440.4,377.57 -251.7,0 -416.9,-125.91 -479.7,-377.57 z M 14798.7,1557.9 c 0,597.68 420.9,1022.43 998.9,1022.43 648.8,0 1042,-499.46 955.5,-1128.55 h -1458.8 c 39.3,-326.37 243.7,-499.452 522.9,-499.452 224.2,0 373.6,102.242 420.8,263.572 h 495.5 c -74.7,-405.111 -412.9,-680.291 -912.3,-680.291 -617.4,0 -1022.5,424.602 -1022.5,1022.291"
         style="fill:#ffffff;fill-opacity:1;fill-rule:nonzero;stroke:none"
         id="path22" /><path
         d="m 8724.91,6634.64 h 566.21 l 754.98,-2076.11 747.2,2076.11 h 554.4 L 10333.2,3882.12 h -597.69 l -1010.6,2752.52"
         style="fill:#ffffff;fill-opacity:1;fill-rule:nonzero;stroke:none"
         id="path24" /><path
         d="m 11747.1,6666.2 c 177,0 306.8,-125.76 306.8,-298.85 0,-169.06 -129.8,-294.97 -306.8,-294.97 -176.9,0 -306.6,125.91 -306.6,294.97 0,173.09 129.7,298.85 306.6,298.85"
         style="fill:#ffffff;fill-opacity:1;fill-rule:nonzero;stroke:none"
         id="path26" /><path
         d="m 11499.4,5864.02 h 499.4 v -1981.9 h -499.4 v 1981.9"
         style="fill:#ffffff;fill-opacity:1;fill-rule:nonzero;stroke:none"
         id="path28" /><path
         d="m 12209.1,4542.75 h 460.1 c 19.7,-192.73 145.5,-302.86 357.8,-302.86 184.8,0 298.8,82.6 298.8,224.13 0,385.46 -1073.4,122.04 -1073.4,861.26 0,318.48 275.2,570.15 703.8,570.15 468,0 759,-235.89 810.1,-625.22 h -456.2 c -31.4,161.18 -165.1,255.53 -353.9,255.53 -141.5,0 -251.6,-62.8 -251.6,-172.93 0,-361.8 1089.2,-78.73 1089.2,-876.88 0,-365.81 -322.4,-625.22 -766.8,-625.22 -507.3,0 -794.3,306.73 -817.9,692.04"
         style="fill:#ffffff;fill-opacity:1;fill-rule:nonzero;stroke:none"
         id="path30" /><path
         d="m 14295.9,6666.2 c 176.9,0 306.7,-125.76 306.7,-298.85 0,-169.06 -129.8,-294.97 -306.7,-294.97 -177,0 -306.7,125.91 -306.7,294.97 0,173.09 129.7,298.85 306.7,298.85"
         style="fill:#ffffff;fill-opacity:1;fill-rule:nonzero;stroke:none"
         id="path32" /><path
         d="m 14048.2,5864.02 h 499.3 v -1981.9 h -499.3 v 1981.9"
         style="fill:#ffffff;fill-opacity:1;fill-rule:nonzero;stroke:none"
         id="path34" /><path
         d="m 15898.5,4279.33 c 314.6,0 538.8,239.76 538.8,593.67 0,357.92 -224.2,597.68 -538.8,597.68 -314.5,0 -534.8,-239.76 -534.8,-597.68 0,-349.89 220.3,-593.67 534.8,-593.67 z m -534.8,-149.42 v -247.79 h -499.4 V 6666.2 h 499.4 V 5620.1 c 110.1,169.21 350,275.33 601.7,275.33 585.9,0 975.2,-397.22 975.2,-1022.43 0,-625.22 -389.3,-1022.29 -975.2,-1022.29 -251.7,0 -491.6,109.99 -601.7,279.2"
         style="fill:#ffffff;fill-opacity:1;fill-rule:nonzero;stroke:none"
         id="path36" /><path
         d="m 17877.5,4232.15 c 287.1,0 468,228 468,511.07 v 31.55 l -365.8,-47.18 c -275.2,-31.55 -397.1,-110.13 -397.1,-275.32 0,-137.67 114,-220.12 294.9,-220.12 z m -786.4,200.47 c 0,389.33 267.3,597.68 869,660.64 l 385.4,39.29 v 43.31 c 0,208.35 -149.5,334.26 -373.6,334.26 -208.4,0 -350,-114.15 -377.5,-318.64 h -491.6 c 55.1,393.35 385.4,703.95 869.1,703.95 511.1,0 872.9,-279.2 872.9,-786.4 V 3882.12 h -499.3 v 251.66 c -86.6,-157.31 -314.7,-283.07 -566.3,-283.07 -416.8,0 -688.1,239.76 -688.1,581.91"
         style="fill:#ffffff;fill-opacity:1;fill-rule:nonzero;stroke:none"
         id="path38" /></g></g></svg>
